<svg width="256" height="256" viewBox="0 0 256 256" fill="none" xmlns="http://www.w3.org/2000/svg" shape-rendering="crispEdges">
<g clip-path="url(#clip0_147_2)">
<path d="M49 52.4V27.4H69V52.4H49ZM69 52.4V2.4H89V52.4H69ZM89 52.4V2.4H109V52.4H89ZM109 52.4V2.4H129V52.4H109ZM129 52.4V2.4H149V52.4H129ZM149 52.4V2.4H169V52.4H149ZM169 52.4V2.4H189V52.4H169ZM189 52.4V27.4H209V52.4H189ZM29 103.4V53.4H49V103.4H29ZM49 103.4V53.4H69V103.4H49ZM69 78.4V53.4H89V78.4H69ZM89 78.4V53.4H109V78.4H89ZM109 103.4V53.4H129V103.4H109ZM129 103.4V53.4H149V103.4H129ZM149 78.4V53.4H169V78.4H149ZM169 78.4V53.4H189V78.4H169ZM189 103.4V53.4H209V103.4H189ZM209 103.4V53.4H229V103.4H209ZM29 154.4V104.4H49V154.4H29ZM49 154.4V104.4H69V154.4H49ZM109 154.4V104.4H129V154.4H109ZM129 154.4V104.4H149V154.4H129ZM189 154.4V104.4H209V154.4H189ZM209 154.4V104.4H229V154.4H209ZM29 205.4V155.4H49V205.4H29ZM49 205.4V155.4H69V205.4H49ZM69 205.4V155.4H89V205.4H69ZM89 205.4V155.4H109V205.4H89ZM109 205.4V155.4H129V205.4H109ZM129 205.4V155.4H149V205.4H129ZM149 205.4V155.4H169V205.4H149ZM169 205.4V155.4H189V205.4H169ZM189 205.4V155.4H209V205.4H189ZM209 205.4V155.4H229V205.4H209ZM49 231.4V206.4H69V231.4H49ZM69 256.4V206.4H89V256.4H69ZM89 231.4V206.4H109V231.4H89ZM149 231.4V206.4H169V231.4H149ZM169 256.4V206.4H189V256.4H169ZM189 231.4V206.4H209V231.4H189Z" fill="white"/>
<path d="M49 52.4V27.4H69V52.4H49ZM69 52.4V2.4H89V52.4H69ZM89 52.4V2.4H109V52.4H89ZM109 52.4V2.4H129V52.4H109ZM129 52.4V2.4H149V52.4H129ZM149 52.4V2.4H169V52.4H149ZM169 52.4V2.4H189V52.4H169ZM189 52.4V27.4H209V52.4H189ZM29 103.4V53.4H49V103.4H29ZM49 103.4V53.4H69V103.4H49ZM69 78.4V53.4H89V78.4H69ZM89 78.4V53.4H109V78.4H89ZM109 103.4V53.4H129V103.4H109ZM129 103.4V53.4H149V103.4H129ZM149 78.4V53.4H169V78.4H149ZM169 78.4V53.4H189V78.4H169ZM189 103.4V53.4H209V103.4H189ZM209 103.4V53.4H229V103.4H209ZM29 154.4V104.4H49V154.4H29ZM49 154.4V104.4H69V154.4H49ZM109 154.4V104.4H129V154.4H109ZM129 154.4V104.4H149V154.4H129ZM189 154.4V104.4H209V154.4H189ZM209 154.4V104.4H229V154.4H209ZM29 205.4V155.4H49V205.4H29ZM49 205.4V155.4H69V205.4H49ZM69 205.4V155.4H89V205.4H69ZM89 205.4V155.4H109V205.4H89ZM109 205.4V155.4H129V205.4H109ZM129 205.4V155.4H149V205.4H129ZM149 205.4V155.4H169V205.4H149ZM169 205.4V155.4H189V205.4H169ZM189 205.4V155.4H209V205.4H189ZM209 205.4V155.4H229V205.4H209ZM49 231.4V206.4H69V231.4H49ZM69 256.4V206.4H89V256.4H69ZM89 231.4V206.4H109V231.4H89ZM149 231.4V206.4H169V231.4H149ZM169 256.4V206.4H189V256.4H169ZM189 231.4V206.4H209V231.4H189Z" fill="url(#paint0_linear_147_2)">
<animate attributeName="opacity"
         values="1;0.78;0.95;0.82;1"
         keyTimes="0;0.27;0.53;0.81;1"
         dur="3.7s"
         repeatCount="indefinite"
         calcMode="spline"
         keySplines="0.42 0 0.58 1; 0.42 0 0.58 1; 0.42 0 0.58 1; 0.42 0 0.58 1"/>
</path>
</g>
<defs>
<linearGradient id="paint0_linear_147_2" x1="117" y1="0" x2="117" y2="255" gradientUnits="userSpaceOnUse">
<animate attributeName="x1"
         values="117;100;130;117"
         keyTimes="0;0.33;0.66;1"
         dur="8s"
         repeatCount="indefinite"
         calcMode="spline"
         keySplines="0.42 0 0.58 1; 0.42 0 0.58 1; 0.42 0 0.58 1"/>
<animate attributeName="x2"
         values="117;130;100;117"
         keyTimes="0;0.33;0.66;1"
         dur="8s"
         repeatCount="indefinite"
         calcMode="spline"
         keySplines="0.42 0 0.58 1; 0.42 0 0.58 1; 0.42 0 0.58 1"/>
<animate attributeName="y1"
         values="0;-30;15;0"
         keyTimes="0;0.4;0.75;1"
         dur="7s"
         repeatCount="indefinite"
         calcMode="spline"
         keySplines="0.42 0 0.58 1; 0.42 0 0.58 1; 0.42 0 0.58 1"/>
<animate attributeName="y2"
         values="255;235;280;255"
         keyTimes="0;0.35;0.7;1"
         dur="7s"
         repeatCount="indefinite"
         calcMode="spline"
         keySplines="0.42 0 0.58 1; 0.42 0 0.58 1; 0.42 0 0.58 1"/>
<stop offset="0.721154" stop-color="#875FFF">
<animate attributeName="offset"
         values="0.25;0.85;0.45;0.7;0.25"
         keyTimes="0;0.25;0.5;0.75;1"
         dur="6s"
         repeatCount="indefinite"
         calcMode="spline"
         keySplines="0.4 0 0.6 1; 0.4 0 0.6 1; 0.4 0 0.6 1; 0.4 0 0.6 1"/>
<animate attributeName="stop-color"
         values="#875FFF;#A06AFF;#6A4FE5;#9D7BFF;#875FFF"
         keyTimes="0;0.25;0.5;0.75;1"
         dur="9s"
         repeatCount="indefinite"/>
</stop>
<stop offset="1" stop-color="#00C8B3">
<animate attributeName="stop-color"
         values="#00C8B3;#3FE5C7;#00B3D0;#5FFFE0;#00C8B3"
         keyTimes="0;0.3;0.55;0.8;1"
         dur="11s"
         repeatCount="indefinite"/>
</stop>
</linearGradient>
<clipPath id="clip0_147_2">
<rect width="256" height="256" fill="white"/>
</clipPath>
</defs>
</svg>
