<svg width="256" height="256" viewBox="0 0 256 256" fill="none" xmlns="http://www.w3.org/2000/svg" shape-rendering="crispEdges">
<g clip-path="url(#clip0_147_2)">
<path d="M40.3978 54.8V31.04H62.7178V54.8H40.3978ZM61.9837 54.8V7.28H84.3038V54.8H61.9837ZM83.5697 54.8V7.28H105.89V54.8H83.5697ZM105.156 54.8V7.28H127.476V54.8H105.156ZM126.742 54.8V7.28H149.062V54.8H126.742ZM148.327 54.8V7.28H170.648V54.8H148.327ZM169.913 54.8V7.28H192.233V54.8H169.913ZM191.499 54.8V31.04H213.819V54.8H191.499ZM18.8119 102.8V55.28H41.1319V102.8H18.8119ZM40.3978 102.8V55.28H62.7178V102.8H40.3978ZM61.9837 79.04V55.28H84.3038V79.04H61.9837ZM83.5697 79.04V55.28H105.89V79.04H83.5697ZM105.156 102.8V55.28H127.476V102.8H105.156ZM126.742 102.8V55.28H149.062V102.8H126.742ZM148.327 79.04V55.28H170.648V79.04H148.327ZM169.913 79.04V55.28H192.233V79.04H169.913ZM191.499 102.8V55.28H213.819V102.8H191.499ZM213.085 102.8V55.28H235.405V102.8H213.085ZM18.8119 150.8V103.28H41.1319V150.8H18.8119ZM40.3978 150.8V103.28H62.7178V150.8H40.3978ZM105.156 150.8V103.28H127.476V150.8H105.156ZM126.742 150.8V103.28H149.062V150.8H126.742ZM191.499 150.8V103.28H213.819V150.8H191.499ZM213.085 150.8V103.28H235.405V150.8H213.085ZM18.8119 198.8V151.28H41.1319V198.8H18.8119ZM40.3978 198.8V151.28H62.7178V198.8H40.3978ZM61.9837 198.8V151.28H84.3038V198.8H61.9837ZM83.5697 198.8V151.28H105.89V198.8H83.5697ZM105.156 198.8V151.28H127.476V198.8H105.156ZM126.742 198.8V151.28H149.062V198.8H126.742ZM148.327 198.8V151.28H170.648V198.8H148.327ZM169.913 198.8V151.28H192.233V198.8H169.913ZM191.499 198.8V151.28H213.819V198.8H191.499ZM213.085 198.8V151.28H235.405V198.8H213.085ZM40.3978 223.04V199.28H62.7178V223.04H40.3978ZM61.9837 246.8V199.28H84.3038V246.8H61.9837ZM83.5697 223.04V199.28H105.89V223.04H83.5697ZM148.327 223.04V199.28H170.648V223.04H148.327ZM169.913 246.8V199.28H192.233V246.8H169.913ZM191.499 223.04V199.28H213.819V223.04H191.499Z" fill="white"/>
<path d="M40.3978 54.8V31.04H62.7178V54.8H40.3978ZM61.9837 54.8V7.28H84.3038V54.8H61.9837ZM83.5697 54.8V7.28H105.89V54.8H83.5697ZM105.156 54.8V7.28H127.476V54.8H105.156ZM126.742 54.8V7.28H149.062V54.8H126.742ZM148.327 54.8V7.28H170.648V54.8H148.327ZM169.913 54.8V7.28H192.233V54.8H169.913ZM191.499 54.8V31.04H213.819V54.8H191.499ZM18.8119 102.8V55.28H41.1319V102.8H18.8119ZM40.3978 102.8V55.28H62.7178V102.8H40.3978ZM61.9837 79.04V55.28H84.3038V79.04H61.9837ZM83.5697 79.04V55.28H105.89V79.04H83.5697ZM105.156 102.8V55.28H127.476V102.8H105.156ZM126.742 102.8V55.28H149.062V102.8H126.742ZM148.327 79.04V55.28H170.648V79.04H148.327ZM169.913 79.04V55.28H192.233V79.04H169.913ZM191.499 102.8V55.28H213.819V102.8H191.499ZM213.085 102.8V55.28H235.405V102.8H213.085ZM18.8119 150.8V103.28H41.1319V150.8H18.8119ZM40.3978 150.8V103.28H62.7178V150.8H40.3978ZM105.156 150.8V103.28H127.476V150.8H105.156ZM126.742 150.8V103.28H149.062V150.8H126.742ZM191.499 150.8V103.28H213.819V150.8H191.499ZM213.085 150.8V103.28H235.405V150.8H213.085ZM18.8119 198.8V151.28H41.1319V198.8H18.8119ZM40.3978 198.8V151.28H62.7178V198.8H40.3978ZM61.9837 198.8V151.28H84.3038V198.8H61.9837ZM83.5697 198.8V151.28H105.89V198.8H83.5697ZM105.156 198.8V151.28H127.476V198.8H105.156ZM126.742 198.8V151.28H149.062V198.8H126.742ZM148.327 198.8V151.28H170.648V198.8H148.327ZM169.913 198.8V151.28H192.233V198.8H169.913ZM191.499 198.8V151.28H213.819V198.8H191.499ZM213.085 198.8V151.28H235.405V198.8H213.085ZM40.3978 223.04V199.28H62.7178V223.04H40.3978ZM61.9837 246.8V199.28H84.3038V246.8H61.9837ZM83.5697 223.04V199.28H105.89V223.04H83.5697ZM148.327 223.04V199.28H170.648V223.04H148.327ZM169.913 246.8V199.28H192.233V246.8H169.913ZM191.499 223.04V199.28H213.819V223.04H191.499Z" fill="url(#paint0_linear_147_2)">
<animate attributeName="opacity"
         values="1;0.78;0.95;0.82;1"
         keyTimes="0;0.27;0.53;0.81;1"
         dur="3.7s"
         repeatCount="indefinite"
         calcMode="spline"
         keySplines="0.42 0 0.58 1; 0.42 0 0.58 1; 0.42 0 0.58 1; 0.42 0 0.58 1"/>
</path>
</g>
<defs>
<linearGradient id="paint0_linear_147_2" x1="132.5" y1="7" x2="132.5" y2="303" gradientUnits="userSpaceOnUse">
<animate attributeName="x1"
         values="132.5;115;150;132.5"
         keyTimes="0;0.33;0.66;1"
         dur="8s"
         repeatCount="indefinite"
         calcMode="spline"
         keySplines="0.42 0 0.58 1; 0.42 0 0.58 1; 0.42 0 0.58 1"/>
<animate attributeName="x2"
         values="132.5;150;115;132.5"
         keyTimes="0;0.33;0.66;1"
         dur="8s"
         repeatCount="indefinite"
         calcMode="spline"
         keySplines="0.42 0 0.58 1; 0.42 0 0.58 1; 0.42 0 0.58 1"/>
<animate attributeName="y1"
         values="7;-25;22;7"
         keyTimes="0;0.4;0.75;1"
         dur="7s"
         repeatCount="indefinite"
         calcMode="spline"
         keySplines="0.42 0 0.58 1; 0.42 0 0.58 1; 0.42 0 0.58 1"/>
<animate attributeName="y2"
         values="303;278;325;303"
         keyTimes="0;0.35;0.7;1"
         dur="7s"
         repeatCount="indefinite"
         calcMode="spline"
         keySplines="0.42 0 0.58 1; 0.42 0 0.58 1; 0.42 0 0.58 1"/>
<stop offset="0.721154" stop-color="#875FFF">
<animate attributeName="offset"
         values="0.25;0.85;0.45;0.7;0.25"
         keyTimes="0;0.25;0.5;0.75;1"
         dur="6s"
         repeatCount="indefinite"
         calcMode="spline"
         keySplines="0.4 0 0.6 1; 0.4 0 0.6 1; 0.4 0 0.6 1; 0.4 0 0.6 1"/>
<animate attributeName="stop-color"
         values="#875FFF;#A06AFF;#6A4FE5;#9D7BFF;#875FFF"
         keyTimes="0;0.25;0.5;0.75;1"
         dur="9s"
         repeatCount="indefinite"/>
</stop>
<stop offset="1" stop-color="#00C8B3">
<animate attributeName="stop-color"
         values="#00C8B3;#3FE5C7;#00B3D0;#5FFFE0;#00C8B3"
         keyTimes="0;0.3;0.55;0.8;1"
         dur="11s"
         repeatCount="indefinite"/>
</stop>
</linearGradient>
<clipPath id="clip0_147_2">
<rect width="256" height="256" fill="white"/>
</clipPath>
</defs>
</svg>
